<svg xmlns="http://www.w3.org/2000/svg" viewBox="0 0 32 32" id="digital-marketing">
  <path d="m3.7264404,22.4075928c2.4163818,3.6651611,6.5643921,6.0924072,11.2735596,6.0924072.2763672,0,.5-.2236328.5-.5s-.2236328-.5-.5-.5c-1.7539062,0-3.3428955-1.9893799-4.3579102-5h5.3579102c.2763672,0,.5-.2236328.5-.5s-.2236328-.5-.5-.5h-5.6629639c-.4880371-1.7730103-.7853394-3.8230591-.8255005-6h10.9802246c-.0083008.5209961-.0253296,1.0122681-.0601196,1.4609375-.0214844.2753906.1835938.5161133.4589844.5375977.2734375.0229492.515625-.1835938.5371094-.4594727.0374146-.4741211.055481-.9910278.0639648-1.5390625h6.5083008c.2763672,0,.5-.2236328.5-.5,0-7.4438477-6.0556641-13.5-13.5-13.5-1.6884766,0-3.3408203.3110352-4.9121094.9243164-.2578125.1005859-.3847656.390625-.2841797.6474609.1005859.2578125.3916016.3862305.6474609.2841797.5533447-.2159424,1.1203003-.3781738,1.6931152-.5127563-1.0529785,1.0470581-1.9421997,2.6519775-2.5770264,4.6567993h-4.5502319c.6192017-.8206787,1.3337402-1.5786133,2.1567993-2.2402344.2148438-.1728516.2490234-.487793.0761719-.703125s-.4873047-.2480469-.703125-.0761719C3.3398438,7.0595703,1.5,10.8935547,1.5,15c0,2.5866089.7440186,4.9970093,2.0106201,7.0526733.0164185.1499023.0968628.2749023.2158203.3549194Zm8.413208,4.7623291c-2.8898926-.6793823-5.3887939-2.3704224-7.1210938-4.6699219h4.5541992c.6346436,2.0015259,1.5153198,3.6237793,2.5668945,4.6699219Zm-2.8444214-5.6699219h-4.9563599c-1.0785522-1.762207-1.7299805-3.8079224-1.8171387-6h5.9951782c.0371704,2.1866455.3141479,4.2155762.7783203,6Zm.2163086-7c.0401611-2.1769409.3374634-4.2269897.8255005-6h9.3259277c.4880371,1.7730103.7853394,3.8230591.8255005,6h-10.9769287Zm11.9766846,0c-.0368042-2.1807861-.3042603-4.2188721-.7658691-6h4.9384155c1.0791016,1.7630615,1.7426758,3.8067627,1.8294678,6h-6.0020142Zm3.491394-7h-4.546875c-.6349487-2.005249-1.5244751-3.6104736-2.5777588-4.6575317,2.8896484.6789551,5.3922119,2.3583374,7.1246338,4.6575317ZM15,2.5c1.7539062,0,3.3428955,1.9893799,4.3579102,5h-8.7158203c1.0150146-3.0106201,2.6040039-5,4.3579102-5Zm-5.7223511,6c-.4616089,1.7811279-.7290649,3.8192139-.7658691,6H2.5279541c.0853271-2.1505127.7041016-4.206665,1.800354-6h4.9493408Z"></path>
  <path d="M21.5253906 19.0400391c-.109375-.109375-.265625-.1621094-.4150391-.1425781-.1523438.0185547-.2880859.1069336-.3671875.2387695l-4.2431641 7.0708008c-.1181641.1967773-.0869141.4487305.0751953.6108398l2.8291016 2.8286133c.0966797.0966797.2246094.1464844.3535156.1464844.0888672 0 .1777344-.0234375.2568359-.0712891l.7288208-.4373169 2.3258667 1.1629028c.0722656.0356445.1484375.0527344.2236328.0527344.1826172 0 .359375-.1010742.4472656-.2763672.1230469-.2470703.0234375-.5473633-.2236328-.6708984l-1.7566528-.8783569 5.3250122-3.1953735c.1328125-.0791016.2207031-.2148438.2392578-.3676758s-.0332031-.3056641-.1425781-.4145508l-1.0962524-1.0963745c.6415405-.9702148.5357666-2.2927246-.3178101-3.1463013s-2.1760254-.9592896-3.1459961-.317749l-1.0961914-1.0963135zm-1.6904297 9.6235352l-2.2763672-2.2768555 3.7128906-6.1870117.9605713.9608765c.0001831.0001831.0001831.0003662.0003662.0005493s.0003662.0001831.0005493.0003662l3.7885132 3.7896729-6.1865234 3.7124023zm5.2255859-7.5024414c.4595947.4595947.5446777 1.1397705.2820435 1.6964111l-1.9745483-1.9746704c.5552979-.2493896 1.2497559-.1644897 1.6925049.2782593zM27.8886719 17.6254883l-1.4140625 1.4145508c-.1953125.1953125-.1953125.5117188 0 .7070312.0976562.0976562.2255859.1464844.3535156.1464844s.2558594-.0488281.3535156-.1464844l1.4140625-1.4145508c.1953125-.1953125.1953125-.5117188 0-.7070312s-.5117188-.1953125-.7070312 0zM24.5 18.2216797v-1.2216797c0-.2763672-.2236328-.5-.5-.5s-.5.2236328-.5.5v1.2216797c0 .2763672.2236328.5.5.5s.5-.2236328.5-.5zM27.5 22.2216797c0 .2763672.2236328.5.5.5h1c.2763672 0 .5-.2236328.5-.5s-.2236328-.5-.5-.5h-1c-.2763672 0-.5.2236328-.5.5zM8.7143555 4.1952515c.2391357-.1380615.321106-.4438477.1830444-.6830444-.1381226-.2391357-.4439087-.3210449-.6830444-.1829834s-.321106.4438477-.1829834.6829834c.1380615.2391968.4438477.321106.6829834.1830444z"></path>
</svg>
